<?xml version="1.0" encoding="UTF-8" standalone="no"?>
<!-- Created with Inkscape (http://www.inkscape.org/) -->

<svg
   width="256"
   height="256"
   viewBox="0 0 256 256"
   version="1.1"
   id="svg1"
   xml:space="preserve"
   inkscape:export-filename="logo1.svg"
   inkscape:export-xdpi="96"
   inkscape:export-ydpi="96"
   xmlns:inkscape="http://www.inkscape.org/namespaces/inkscape"
   xmlns:sodipodi="http://sodipodi.sourceforge.net/DTD/sodipodi-0.dtd"
   xmlns:xlink="http://www.w3.org/1999/xlink"
   xmlns="http://www.w3.org/2000/svg"
   xmlns:svg="http://www.w3.org/2000/svg"><sodipodi:namedview
     id="namedview1"
     pagecolor="#ffffff"
     bordercolor="#ffffff"
     borderopacity="1"
     inkscape:showpageshadow="0"
     inkscape:pageopacity="0"
     inkscape:pagecheckerboard="0"
     inkscape:deskcolor="#424242"
     inkscape:document-units="mm"
     inkscape:zoom="4.4924467"
     inkscape:cx="135.67217"
     inkscape:cy="135.00438"
     inkscape:window-width="2256"
     inkscape:window-height="1481"
     inkscape:window-x="-8"
     inkscape:window-y="-8"
     inkscape:window-maximized="1"
     inkscape:current-layer="layer1" /><defs
     id="defs1"><inkscape:path-effect
       effect="fillet_chamfer"
       id="path-effect135"
       is_visible="true"
       lpeversion="1"
       nodesatellites_param="F,0,1,1,0,1.994613,0,1 @ F,0,1,1,0,1.994613,0,1 @ F,0,1,1,0,1.994613,0,1 @ F,0,1,1,0,1.994613,0,1 @ F,0,1,1,0,1.994613,0,1 @ F,0,1,1,0,1.994613,0,1 @ F,0,1,1,0,1.994613,0,1 | F,0,1,1,0,1.994613,0,1 @ F,0,1,1,0,1.994613,0,1 @ F,0,1,1,0,1.994613,0,1 @ F,0,1,1,0,1.994613,0,1 | F,0,1,1,0,1.994613,0,1 @ F,0,1,1,0,1.994613,0,1 @ F,0,1,1,0,1.994613,0,1 @ F,0,1,1,0,1.994613,0,1 | F,0,1,1,0,1.994613,0,1 @ F,0,1,1,0,1.994613,0,1 @ F,0,0,1,0,1.994613,0,1 @ F,0,1,1,0,1.994613,0,1"
       radius="0"
       unit="px"
       method="auto"
       mode="F"
       chamfer_steps="1"
       flexible="false"
       use_knot_distance="true"
       apply_no_radius="true"
       apply_with_radius="true"
       only_selected="false"
       hide_knots="false" /><linearGradient
       id="linearGradient51"
       inkscape:collect="always"><stop
         style="stop-color:#0a3b4c;stop-opacity:1;"
         offset="0"
         id="stop51" /><stop
         style="stop-color:#3f859c;stop-opacity:1;"
         offset="1"
         id="stop52" /></linearGradient><linearGradient
       id="linearGradient49"
       inkscape:collect="always"><stop
         style="stop-color:#ffb168;stop-opacity:1;"
         offset="0"
         id="stop49" /><stop
         style="stop-color:#bc353a;stop-opacity:1;"
         offset="1"
         id="stop50" /></linearGradient><linearGradient
       inkscape:collect="always"
       xlink:href="#linearGradient49"
       id="linearGradient50"
       x1="74.930733"
       y1="81.948967"
       x2="195.06285"
       y2="187.9046"
       gradientUnits="userSpaceOnUse" /><linearGradient
       inkscape:collect="always"
       xlink:href="#linearGradient51"
       id="linearGradient52"
       x1="102.53262"
       y1="83.480827"
       x2="139.22124"
       y2="185.42973"
       gradientUnits="userSpaceOnUse" /><filter
       style="color-interpolation-filters:sRGB"
       inkscape:label="Drop Shadow"
       id="filter105"
       x="-0.10943094"
       y="-0.107964"
       width="1.2579444"
       height="1.2544866"><feFlood
         result="flood"
         in="SourceGraphic"
         flood-opacity="0.513726"
         flood-color="rgb(0,0,0)"
         id="feFlood104" /><feGaussianBlur
         result="blur"
         in="SourceGraphic"
         stdDeviation="7.000000"
         id="feGaussianBlur104" /><feOffset
         result="offset"
         in="blur"
         dx="6.000000"
         dy="6.000000"
         id="feOffset104" /><feComposite
         result="comp1"
         operator="in"
         in="flood"
         in2="offset"
         id="feComposite104" /><feComposite
         result="comp2"
         operator="over"
         in="SourceGraphic"
         in2="comp1"
         id="feComposite105" /></filter><clipPath
       clipPathUnits="userSpaceOnUse"
       id="clipPath117"><circle
         style="fill:url(#linearGradient118);fill-opacity:1;stroke:none;stroke-width:1.75955;stroke-linecap:round"
         id="circle118"
         cy="128"
         cx="128"
         r="78" /></clipPath><linearGradient
       inkscape:collect="always"
       xlink:href="#linearGradient51"
       id="linearGradient118"
       gradientUnits="userSpaceOnUse"
       x1="102.53262"
       y1="83.480827"
       x2="139.22124"
       y2="185.42973" /></defs><g
     inkscape:label="Layer 1"
     inkscape:groupmode="layer"
     id="layer1"><circle
       style="fill:url(#linearGradient52);fill-opacity:1;stroke:none;stroke-width:1.75955;stroke-linecap:round"
       id="path21"
       r="78"
       cy="128"
       cx="128" /><path
       id="path21-4"
       style="fill:url(#linearGradient50);fill-opacity:1;stroke:none;stroke-width:1.75955;stroke-linecap:round;filter:url(#filter105)"
       d="m 128,50 c -43.07821,0 -78,34.92179 -78,78 0.104271,40.8703 31.738808,74.72976 72.50781,77.60742 C 80.557928,180.02407 65.630123,144.57101 73.457031,113.52344 81.203595,82.794578 113.2289,74.233115 133.33398,81.025391 c 18.99523,6.417321 29.3054,23.329859 27.82618,37.619139 0,0 -47.32195,28.92194 -38.73243,43.4043 2.96477,4.99868 10.84268,11.51289 24.63224,11.32663 28.43304,-0.38404 47.9161,-26.91064 56.46151,-64.83835 C 194.64392,74.084551 163.57794,50.005139 128,50 Z"
       sodipodi:nodetypes="cccsscsscc"
       clip-path="url(#clipPath117)" /><path
       id="path22"
       style="color:#000000;fill:#f3edda;stroke-linecap:round;-inkscape-stroke:none"
       d="m 118.86719,77.707031 c -0.74816,0.0096 -1.49961,0.03631 -2.25391,0.08008 -6.03435,0.350131 -12.23198,1.798672 -18.068358,4.4375 -11.672757,5.277658 -21.890283,15.39353 -26.197266,30.992189 -8.376523,30.33736 7.21237,67.04453 47.294924,92.18554 a 78,78 0 0 0 5.02734,0.35938 C 82.375811,180.98521 66.25729,143.92331 74.566406,113.83008 78.693871,98.881581 88.361403,89.352926 99.492188,84.320312 110.62297,79.2877 123.22768,78.824982 132.9668,82.115234 c 18.31005,6.185843 28.17428,22.350946 27.04882,35.904296 -0.8366,0.51433 -11.74477,7.2421 -22.18359,16.01563 -5.42175,4.55682 -10.5919,9.56877 -13.92773,14.47461 -1.66793,2.4529 -2.88472,4.88377 -3.40235,7.27148 -0.51763,2.38771 -0.29719,4.77175 0.9375,6.85352 3.19712,5.3904 11.47921,12.08185 25.63672,11.89062 14.61059,-0.19734 27.20066,-7.91056 37.11914,-20.26562 8.87425,-11.05431 15.65891,-25.84938 20.07422,-42.51563 a 78,78 0 0 0 -1.18359,-4.7793 c -4.28975,18.14148 -11.35403,34.234 -20.6836,45.85547 -9.61851,11.98141 -21.53502,19.2176 -35.35742,19.4043 -13.42153,0.18129 -20.89649,-6.15478 -23.6289,-10.76172 -0.91269,-1.53882 -1.09222,-3.22739 -0.66602,-5.19336 0.4262,-1.96597 1.49603,-4.16975 3.05664,-6.46484 3.12121,-4.59019 8.17085,-9.52388 13.50586,-14.00781 10.67004,-8.96787 22.44727,-16.17188 22.44727,-16.17188 l 0.48632,-0.29688 0.0586,-0.56445 c 1.54514,-14.92609 -9.14742,-32.255104 -28.60352,-38.828123 -4.53508,-1.53213 -9.59691,-2.296048 -14.83398,-2.228516 z" /><circle
       style="fill:#f3edda;fill-opacity:1;stroke:#f3edda;stroke-width:2.3;stroke-linecap:round;stroke-dasharray:none;stroke-opacity:1"
       id="path18"
       cx="128"
       cy="128"
       r="35" /><path
       style="font-size:40px;line-height:1.25;font-family:Bahnschrift;-inkscape-font-specification:Bahnschrift;letter-spacing:0px;word-spacing:0px;fill:#245768;fill-opacity:1;stroke-width:1.15844"
       d="m 103.23856,146.54505 10.78259,-37.0901 a 2.6570512,2.6570512 143.10493 0 1 2.55142,-1.91532 h 2.4158 a 2.6570512,2.6570512 36.89507 0 1 2.55142,1.91532 l 10.78259,37.0901 a 1.4973295,1.4973295 126.89507 0 1 -1.4378,1.91532 h -2.66883 a 2.568765,2.568765 37.828879 0 1 -2.4887,-1.93245 l -7.4525,-29.1475 a 0.50998625,0.50998625 179.99998 0 0 -0.98818,0 l -7.45248,29.1475 a 2.5687635,2.5687635 142.1711 0 1 -2.4887,1.93245 h -2.66883 a 1.4973295,1.4973295 53.10493 0 1 -1.4378,-1.91532 z m 5.42936,-9.05709 v -1.47062 a 1.994613,1.994613 135 0 1 1.99461,-1.99461 h 14.55094 a 1.994613,1.994613 45 0 1 1.99461,1.99461 v 1.47062 a 1.994613,1.994613 135 0 1 -1.99461,1.99461 h -14.55094 a 1.994613,1.994613 45 0 1 -1.99461,-1.99461 z m 28.2728,-10.39299 h 14.38292 a 1.994613,1.994613 45 0 1 1.99461,1.99461 v 0.40018 a 1.994613,1.994613 135 0 1 -1.99461,1.99461 h -14.38292 a 1.994613,1.994613 45 0 1 -1.99461,-1.99461 v -0.40018 a 1.994613,1.994613 135 0 1 1.99461,-1.99461 z m 9.49929,-4.99676 v 14.38292 a 1.994613,1.994613 135 0 1 -1.99461,1.99461 h -0.62644 a 1.994613,1.994613 45 0 1 -1.99461,-1.99461 v -14.38292 a 1.994613,1.994613 135 0 1 1.99461,-1.99461 l 0.62644,0 a 1.994613,1.994613 45 0 1 1.99461,1.99461 z"
       id="text135"
       aria-label="A+"
       sodipodi:nodetypes="ccccccccccccccccccccccc"
       inkscape:original-d="m 102.68175,148.46037 11.89621,-40.92074 h 6.40502 l 11.89621,40.92074 h -6.65805 l -8.44068,-33.0124 -8.44066,33.0124 z m 5.98617,-8.9778 v -5.45984 h 18.54016 v 5.45984 z m 26.27819,-12.3876 h 18.37214 v 4.3894 h -18.37214 z m 11.4939,-6.99137 v 18.37214 h -4.61566 V 120.1036 Z"
       inkscape:path-effect="#path-effect135" /></g></svg>
