<?xml version="1.0" encoding="UTF-8" standalone="no"?>
<!-- Created with Inkscape (http://www.inkscape.org/) -->

<svg
   width="256"
   height="256"
   viewBox="0 0 256 256"
   version="1.1"
   id="svg1"
   xml:space="preserve"
   xmlns:xlink="http://www.w3.org/1999/xlink"
   xmlns="http://www.w3.org/2000/svg"
   xmlns:svg="http://www.w3.org/2000/svg"><defs
     id="defs1"><linearGradient
       id="linearGradient51"><stop
         style="stop-color:#0a3b4c;stop-opacity:1;"
         offset="0"
         id="stop51" /><stop
         style="stop-color:#3f859c;stop-opacity:1;"
         offset="1"
         id="stop52" /></linearGradient><linearGradient
       id="linearGradient49"><stop
         style="stop-color:#ffb168;stop-opacity:1;"
         offset="0"
         id="stop49" /><stop
         style="stop-color:#bc353a;stop-opacity:1;"
         offset="1"
         id="stop50" /></linearGradient><linearGradient
       xlink:href="#linearGradient49"
       id="linearGradient50"
       x1="74.930733"
       y1="81.948967"
       x2="195.06285"
       y2="187.9046"
       gradientUnits="userSpaceOnUse" /><linearGradient
       xlink:href="#linearGradient51"
       id="linearGradient52"
       x1="102.53262"
       y1="83.480827"
       x2="139.22124"
       y2="185.42973"
       gradientUnits="userSpaceOnUse" /><filter
       style="color-interpolation-filters:sRGB"
       id="filter105"
       x="-0.10482719"
       y="-0.10115181"
       width="1.2470927"
       height="1.2384293"><feFlood
         result="flood"
         in="SourceGraphic"
         flood-opacity="0.513726"
         flood-color="rgb(0,0,0)"
         id="feFlood104" /><feGaussianBlur
         result="blur"
         in="SourceGraphic"
         stdDeviation="7.000000"
         id="feGaussianBlur104" /><feOffset
         result="offset"
         in="blur"
         dx="6.000000"
         dy="6.000000"
         id="feOffset104" /><feComposite
         result="comp1"
         operator="in"
         in="flood"
         in2="offset"
         id="feComposite104" /><feComposite
         result="comp2"
         operator="over"
         in="SourceGraphic"
         in2="comp1"
         id="feComposite105" /></filter><clipPath
       clipPathUnits="userSpaceOnUse"
       id="clipPath8"><circle
         style="fill:url(#linearGradient9);fill-opacity:1;stroke:none;stroke-width:1.75955;stroke-linecap:round"
         id="circle9"
         r="78"
         cy="128"
         cx="128" /></clipPath><linearGradient
       xlink:href="#linearGradient51"
       id="linearGradient9"
       gradientUnits="userSpaceOnUse"
       x1="102.53262"
       y1="83.480827"
       x2="139.22124"
       y2="185.42973" /><filter
       y="0"
       height="1"
       x="0"
       width="1"
       style="color-interpolation-filters:sRGB"
       id="filter18"><feTurbulence
         type="fractalNoise"
         baseFrequency="0.17672934973637963"
         numOctaves="4"
         seed="0"
         result="result4"
         id="feTurbulence17" /><feDisplacementMap
         in="SourceGraphic"
         in2="result4"
         yChannelSelector="G"
         xChannelSelector="R"
         scale="0"
         result="result3"
         id="feDisplacementMap17" /><feDiffuseLighting
         lighting-color="#e9e6d7"
         diffuseConstant="1"
         surfaceScale="0.04244482"
         result="result1"
         in="result4"
         id="feDiffuseLighting17"><feDistantLight
           azimuth="110"
           elevation="40"
           id="feDistantLight17" /></feDiffuseLighting><feComposite
         operator="in"
         in="result3"
         in2="result1"
         result="result2"
         id="feComposite17" /><feComposite
         in2="result1"
         result="result5"
         operator="arithmetic"
         k1="1.7"
         id="feComposite18"
         k2="0"
         k3="0"
         k4="0" /><feBlend
         in="result5"
         in2="result3"
         mode="normal"
         id="feBlend18" /></filter></defs><g
     id="layer1"><circle
       style="fill:url(#linearGradient52);fill-opacity:1;stroke:none;stroke-width:1.75955;stroke-linecap:round;filter:url(#filter18)"
       id="path21"
       r="78"
       cy="128"
       cx="128" /><g
       id="g8"
       clip-path="url(#clipPath8)"><path
         id="path21-4"
         style="fill:url(#linearGradient50);fill-opacity:1;stroke:none;stroke-width:1.75955;stroke-linecap:round;filter:url(#filter105)"
         d="m 128.5,41.75 c -43.07821,0 -85,45.67179 -85,88.75 0.104271,40.8703 39.738808,88.22976 79.00781,75.10742 C 80.557928,180.02407 65.630123,144.57101 73.457031,113.52344 81.203595,82.794578 113.2289,74.233115 133.33398,81.025391 c 18.99523,6.417321 29.3054,23.329859 27.82618,37.619139 0,0 -47.32195,28.92194 -38.73243,43.4043 2.96477,4.99868 10.84268,11.51289 24.63224,11.32663 28.43304,-0.38404 47.9161,-26.91064 56.46151,-64.83835 C 207.39392,74.084551 164.07794,41.755139 128.5,41.75 Z"
         clip-path="none" /><path
         id="path22"
         style="color:#000000;fill:#f3edda;stroke-linecap:round;-inkscape-stroke:none"
         d="m 118.86719,77.707031 c -0.74816,0.0096 -1.49961,0.03631 -2.25391,0.08008 -6.03435,0.350131 -12.23198,1.798672 -18.068358,4.4375 -11.672757,5.277658 -21.890283,15.39353 -26.197266,30.992189 -8.376523,30.33736 8.71237,67.98203 48.794924,93.12304 1.67147,0.17392 3.34813,0.29377 5.02734,0.35938 C 83.875811,181.92271 66.25729,143.92331 74.566406,113.83008 78.693871,98.881581 88.361403,89.352926 99.492188,84.320312 110.62297,79.2877 123.22768,78.824982 132.9668,82.115234 c 18.31005,6.185843 28.17428,22.350946 27.04882,35.904296 -0.8366,0.51433 -11.74477,7.2421 -22.18359,16.01563 -5.42175,4.55682 -10.5919,9.56877 -13.92773,14.47461 -1.66793,2.4529 -2.88472,4.88377 -3.40235,7.27148 -0.51763,2.38771 -0.29719,4.77175 0.9375,6.85352 3.19712,5.3904 11.47921,12.08185 25.63672,11.89062 14.61059,-0.19734 27.20066,-7.91056 37.11914,-20.26562 8.87425,-11.05431 16.31516,-26.63063 20.73047,-43.29688 -0.34414,-1.60516 -0.73886,-3.19905 -1.18359,-4.7793 -4.28975,18.14148 -12.01028,35.01525 -21.33985,46.63672 -9.61851,11.98141 -21.53502,19.2176 -35.35742,19.4043 -13.42153,0.18129 -20.89649,-6.15478 -23.6289,-10.76172 -0.91269,-1.53882 -1.09222,-3.22739 -0.66602,-5.19336 0.4262,-1.96597 1.49603,-4.16975 3.05664,-6.46484 3.12121,-4.59019 8.17085,-9.52388 13.50586,-14.00781 10.67004,-8.96787 22.44727,-16.17188 22.44727,-16.17188 l 0.48632,-0.29688 0.0586,-0.56445 c 1.54514,-14.92609 -9.14742,-32.255104 -28.60352,-38.828123 -4.53508,-1.53213 -9.59691,-2.296048 -14.83398,-2.228516 z" /></g><circle
       style="fill:#f3edda;fill-opacity:1;stroke:#f3edda;stroke-width:2.3;stroke-linecap:round;stroke-dasharray:none;stroke-opacity:1"
       id="path18"
       cx="128"
       cy="128"
       r="35" /><path
       style="font-size:40px;line-height:1.25;font-family:Bahnschrift;-inkscape-font-specification:Bahnschrift;letter-spacing:0px;word-spacing:0px;fill:#245768;fill-opacity:1;stroke-width:1.15844"
       d="m 103.23856,146.54505 10.78259,-37.0901 a 2.6570512,2.6570512 143.10493 0 1 2.55142,-1.91532 h 2.4158 a 2.6570512,2.6570512 36.89507 0 1 2.55142,1.91532 l 10.78259,37.0901 a 1.4973295,1.4973295 126.89507 0 1 -1.4378,1.91532 h -2.66883 a 2.568765,2.568765 37.828879 0 1 -2.4887,-1.93245 l -7.4525,-29.1475 a 0.50998625,0.50998625 179.99998 0 0 -0.98818,0 l -7.45248,29.1475 a 2.5687635,2.5687635 142.1711 0 1 -2.4887,1.93245 h -2.66883 a 1.4973295,1.4973295 53.10493 0 1 -1.4378,-1.91532 z m 5.42936,-9.05709 v -1.47062 a 1.994613,1.994613 135 0 1 1.99461,-1.99461 h 14.55094 a 1.994613,1.994613 45 0 1 1.99461,1.99461 v 1.47062 a 1.994613,1.994613 135 0 1 -1.99461,1.99461 h -14.55094 a 1.994613,1.994613 45 0 1 -1.99461,-1.99461 z m 28.2728,-10.39299 h 14.38292 a 1.994613,1.994613 45 0 1 1.99461,1.99461 v 0.40018 a 1.994613,1.994613 135 0 1 -1.99461,1.99461 h -14.38292 a 1.994613,1.994613 45 0 1 -1.99461,-1.99461 v -0.40018 a 1.994613,1.994613 135 0 1 1.99461,-1.99461 z m 9.49929,-4.99676 v 14.38292 a 1.994613,1.994613 135 0 1 -1.99461,1.99461 h -0.62644 a 1.994613,1.994613 45 0 1 -1.99461,-1.99461 v -14.38292 a 1.994613,1.994613 135 0 1 1.99461,-1.99461 l 0.62644,0 a 1.994613,1.994613 45 0 1 1.99461,1.99461 z"
       id="text135"
       aria-label="A+" /></g></svg>
