<?xml version="1.0" encoding="UTF-8" standalone="no"?>
<svg
   width="120"
   height="120"
   viewBox="0 0 120 120"
   version="1.1"
   id="svg1"
   sodipodi:docname="nameshape.svg"
   inkscape:version="1.3.2 (091e20e, 2023-11-25, custom)"
   xml:space="preserve"
   inkscape:export-filename="tbottom.svg"
   inkscape:export-xdpi="600"
   inkscape:export-ydpi="600"
   xmlns:inkscape="http://www.inkscape.org/namespaces/inkscape"
   xmlns:sodipodi="http://sodipodi.sourceforge.net/DTD/sodipodi-0.dtd"
   xmlns:xlink="http://www.w3.org/1999/xlink"
   xmlns="http://www.w3.org/2000/svg"
   xmlns:svg="http://www.w3.org/2000/svg"><defs
     id="defs1"><linearGradient
       id="linearGradient15"
       inkscape:collect="always"><stop
         style="stop-color:#495d47;stop-opacity:1;"
         offset="0"
         id="stop15" /><stop
         style="stop-color:#597155;stop-opacity:1;"
         offset="1"
         id="stop16" /></linearGradient><linearGradient
       inkscape:collect="always"
       xlink:href="#linearGradient15"
       id="linearGradient16"
       x1="21.12439"
       y1="69.078094"
       x2="100.80401"
       y2="113.32809"
       gradientUnits="userSpaceOnUse" /></defs><sodipodi:namedview
     id="namedview1"
     pagecolor="#505050"
     bordercolor="#eeeeee"
     borderopacity="1"
     inkscape:showpageshadow="0"
     inkscape:pageopacity="0"
     inkscape:pagecheckerboard="0"
     inkscape:deskcolor="#505050"
     showguides="false"
     inkscape:zoom="8"
     inkscape:cx="87.0625"
     inkscape:cy="127.5625"
     inkscape:window-width="2560"
     inkscape:window-height="1417"
     inkscape:window-x="3832"
     inkscape:window-y="692"
     inkscape:window-maximized="1"
     inkscape:current-layer="g13" /><g
     id="g13"
     style="fill:url(#linearGradient16);fill-opacity:1"><path
       style="fill:#ffb0b0;fill-opacity:0.18417;stroke:none;stroke-width:1px;stroke-linecap:butt;stroke-linejoin:miter;stroke-opacity:1"
       d="m 30.875,49.125 76.625,66.25 H 7.25 Z"
       id="path18-8" /><path
       style="fill:#000000;stroke:none;stroke-width:1px;stroke-linecap:butt;stroke-linejoin:miter;stroke-opacity:1;fill-opacity:0.05936073"
       d="m 30.5,49.125 76.625,66.25 H 6.875 Z"
       id="path18" /><g
       id="path1"
       style="fill:url(#linearGradient16);fill-opacity:1"><path
         style="color:#000000;fill:url(#linearGradient16);stroke-linejoin:round;-inkscape-stroke:none;fill-opacity:1"
         d="m 28.267578,42.052734 c 0,-0.06578 -0.08169,0.102531 -0.06445,0.166016 l 3.039062,11.744141 c 0.0079,0.02886 0.0242,0.05471 0.04687,0.07422 l 66.863282,58.103519 c 0.01325,0.0117 0.02846,0.0209 0.04492,0.0273 l 18.509768,6.99023 c 0.15637,0.0577 0.27611,-0.14449 0.15039,-0.25391 L 28.445312,42.066406 c -0.04982,-0.04308 -0.177734,0.05219 -0.177734,-0.01367 z"
         id="path3"
         sodipodi:nodetypes="sccccccccss" /></g><g
       id="path1-2"
       style="fill:url(#linearGradient16);fill-opacity:1"><path
         style="color:#000000;fill:url(#linearGradient16);stroke-linejoin:round;-inkscape-stroke:none;fill-opacity:1"
         d="m 28.314453,42 c -0.06583,-0.002 -0.125242,0.03922 -0.146484,0.101562 L 2.0078125,119.20703 c -0.033965,0.0978 0.039034,0.19982 0.1425781,0.19922 L 116.77734,119.17773 c 0.16873,0.002 0.2113,-0.2334 0.0527,-0.29101 l -18.376955,-6.84961 c -0.01683,-0.006 -0.03469,-0.01 -0.05273,-0.01 L 11.97262,112.20094 31.679651,54.120864 c 0.009,-0.02784 0.0097,-0.05771 0.002,-0.08594 L 28.455078,42.111328 C 28.43799,42.047197 28.380794,42.001917 28.314453,42 Z"
         id="path5"
         sodipodi:nodetypes="ccccccccccccc" /></g></g></svg>
