<?xml version="1.0" encoding="UTF-8" standalone="no"?>
<svg
   width="24"
   height="24"
   viewBox="0 0 24 24"
   version="1.1"
   id="svg1"
   xml:space="preserve"
   xmlns="http://www.w3.org/2000/svg"
   xmlns:svg="http://www.w3.org/2000/svg"><defs
     id="defs1" /><path
     id="rect1"
     style="fill:#000000;fill-opacity:1;stroke-width:20.9961;stroke-linecap:round;stroke-linejoin:round;paint-order:stroke markers fill"
     d="M 7.158866,0.86136739 A 7.0403426,7.0403426 0 0 0 0.11808004,7.9021524 v 0.01805 A 7.1432976,7.1432976 0 0 0 2.3927956,13.128583 C 2.2762941,12.619255 2.2182803,12.066184 2.2182803,11.443609 v -0.01805 c 0,-3.8882706 3.1525159,-7.0407866 7.0407858,-7.0407866 H 16.81738 c 1.825762,0 3.489575,0.694096 4.741999,1.83241 A 7.0524545,7.0524545 0 0 0 14.71718,0.86136739 Z M 21.559379,6.2171784 a 7.0524545,7.0524545 0 0 1 0.210622,1.69701 v 0.10832 A 7.0403426,7.0403426 0 0 1 14.729215,15.063294 H 7.261168 A 7.1432976,7.1432976 0 0 1 2.3927956,13.128583 c 0.6217432,2.718171 2.883141,4.174629 6.5744091,8.093894 4.5000673,4.778021 3.1235183,2.922633 3.4150823,-2.635782 1.442318,0.01325 4.447128,0 4.447128,0 3.88827,0 7.040786,-3.152514 7.040786,-7.040785 v -0.10832 c 0,-2.0691966 -0.891407,-3.9303226 -2.310822,-5.2204116 z" /></svg>
